<svg width="123" height="31" viewBox="0 0 123 31" fill="none" xmlns="http://www.w3.org/2000/svg">
<g clip-path="url(#clip0_3_803)">
<path d="M46.4317 20.5242H43.2166V13.5469C43.2166 13.2989 43.1699 13.126 43.0749 13.0299C42.9799 12.9346 42.8141 12.8866 42.5767 12.8866H40.33C40.0925 12.8866 39.926 12.9346 39.8318 13.0299C39.7368 13.126 39.6893 13.2981 39.6893 13.5469V20.5234H36.4742V11.9256C36.4742 11.5047 36.6096 11.1575 36.8798 10.8847C37.1507 10.6119 37.6411 10.4755 38.3526 10.4755H44.5836C45.2749 10.4755 45.7638 10.6189 46.0487 10.9064C46.3048 11.1645 46.4325 11.5047 46.4325 11.9256L46.4317 20.5242ZM58.5371 15.4999C58.5371 16.4182 58.4849 17.1413 58.3814 17.6675C58.2101 18.5092 57.8902 19.1524 57.4208 19.5973C56.9513 20.0429 56.2756 20.3413 55.3936 20.4947C54.8432 20.5908 54.0655 20.6389 53.0605 20.6389C52.0555 20.6389 51.2778 20.5908 50.7274 20.4947C49.8454 20.3421 49.1704 20.0429 48.7002 19.5981C48.2308 19.1524 47.9108 18.5092 47.7403 17.6675C47.636 17.1405 47.5839 16.4182 47.5839 15.4999C47.5839 14.5714 47.636 13.8445 47.7396 13.3175C47.9108 12.4758 48.2331 11.8341 48.7072 11.3939C49.1821 10.9537 49.85 10.6577 50.7134 10.5042C51.2723 10.4081 52.0547 10.3608 53.0605 10.3608C54.0647 10.3608 54.8479 10.4081 55.4076 10.5042C56.2702 10.6569 56.9389 10.9537 57.413 11.3939C57.8878 11.8341 58.2101 12.4758 58.3806 13.3175C58.4849 13.8445 58.5371 14.5714 58.5371 15.4999ZM55.2363 15.4999C55.2363 14.9729 55.2231 14.6148 55.1943 14.4226C55.1468 14.1266 55.0386 13.8491 54.8673 13.5903C54.6579 13.2841 54.4073 13.0788 54.113 12.9734C53.8857 12.8966 53.5346 12.8579 53.0605 12.8579C52.5957 12.8579 52.2446 12.8966 52.0072 12.9734C51.7036 13.0788 51.4529 13.2841 51.2536 13.5903C51.0068 13.9638 50.8838 14.6001 50.8838 15.4999C50.8838 16.3896 51.0068 17.0266 51.2536 17.4087C51.4529 17.7156 51.7044 17.9202 52.008 18.0264C52.2446 18.1031 52.5957 18.1411 53.0605 18.1411C53.5346 18.1411 53.8857 18.1023 54.113 18.0264C54.4073 17.921 54.6579 17.7156 54.8673 17.4087C55.1133 17.0452 55.2363 16.4089 55.2363 15.4999ZM70.5008 20.5242H67.0864L64.6824 13.8778C64.6061 13.715 64.554 13.6337 64.526 13.6337C64.5065 13.6337 64.4551 13.715 64.3695 13.8778L61.9655 20.5242H58.5511L62.3781 11.3947C62.6623 10.7049 63.3785 10.3608 64.526 10.3608C65.6734 10.3608 66.3896 10.7057 66.6738 11.3947L70.5008 20.5242ZM81.6393 20.5234H78.3673L78.509 14.6241C78.5191 14.3753 78.4717 14.2506 78.3673 14.2506C78.3105 14.2506 78.1867 14.4133 77.9976 14.7388L75.1662 19.6198C74.7684 20.2994 74.0522 20.6389 73.0184 20.6389C72.1364 20.6389 71.5198 20.3855 71.1695 19.8778C70.9227 19.5136 70.7997 18.9633 70.7997 18.2271V10.4755H74.0717L73.9292 16.2315V16.3896C73.9292 16.619 73.986 16.7344 74.0997 16.7344C74.1565 16.7344 74.2515 16.6151 74.3846 16.3756L77.1303 11.5381C77.5756 10.7538 78.2918 10.3608 79.2782 10.3608C80.8523 10.3608 81.6393 11.1885 81.6393 12.8439V20.5234ZM92.5497 12.9734H88.9936V20.5234H85.7785V12.9734H82.2224V10.4755H92.5497V12.9734ZM102.847 20.5242H99.4611L98.6787 18.4573H95.0938L94.3114 20.5242H90.9258L94.6104 11.5807C94.7808 11.1599 95.0089 10.863 95.2931 10.691C95.6434 10.4709 96.1751 10.3608 96.8866 10.3608C97.465 10.3608 97.9057 10.4228 98.2093 10.5476C98.6359 10.7297 98.9535 11.0746 99.1621 11.5815L102.847 20.5242ZM97.9103 16.1602L97.0143 13.6197C96.9668 13.4756 96.924 13.4043 96.8866 13.4043C96.8485 13.4043 96.8057 13.4756 96.7582 13.6197L95.8621 16.1602H97.9103ZM106.787 20.5234H103.572V10.4755H106.787V20.5234ZM114.568 20.5234H110.699L107.683 16.6329C107.294 16.1361 107.1 15.72 107.1 15.3852C107.1 15.069 107.251 14.6954 107.555 14.2653L110.23 10.4755H114.042L110.586 14.6241C110.31 14.9496 110.173 15.1976 110.173 15.3704C110.173 15.5905 110.348 15.892 110.698 16.2749L114.568 20.5234Z" fill="#9E211B"/>
<path d="M123 20.5242H118.591C117.755 20.5242 117.097 20.4475 116.613 20.294C116.05 20.1067 115.554 19.7572 115.19 19.2896C114.584 18.5239 114.28 17.3041 114.28 15.6293C114.28 13.8111 114.569 12.5285 115.147 11.7814C115.83 10.9111 116.992 10.4755 118.633 10.4755H122.844V12.9734H120.183C119.519 12.9734 119.064 13.0067 118.818 13.0741C118.41 13.1694 118.106 13.3996 117.907 13.7631C117.689 14.1552 117.58 14.7582 117.58 15.5719C117.58 16.3756 117.661 16.9305 117.822 17.2366C118.011 17.5908 118.335 17.8202 118.789 17.9264C119.064 17.9923 119.548 18.0264 120.24 18.0264H123V20.5242ZM10.3896 5.29311C11.3923 5.29311 12.205 4.47316 12.205 3.46101C12.205 2.44886 11.3923 1.62891 10.3896 1.62891C9.38692 1.62891 8.57341 2.44886 8.57341 3.46101C8.57341 4.47316 9.38692 5.29311 10.3896 5.29311ZM17.5781 10.7917C18.3301 10.7917 18.9404 10.1756 18.9404 9.41688C18.9404 8.65738 18.3301 8.04281 17.5781 8.04281C16.8261 8.04281 16.2158 8.65816 16.2158 9.41688C16.2158 10.1764 16.8261 10.7917 17.5781 10.7917ZM10.0113 22.168C10.4706 22.168 10.8442 21.7921 10.8442 21.3279C10.8442 20.8644 10.4706 20.4878 10.0113 20.4878C9.55196 20.4878 9.17829 20.8644 9.17829 21.3279C9.17829 21.7921 9.55196 22.168 10.0113 22.168Z" fill="#9E211B"/>
<path d="M25.6245 15.5C27.7544 12.8216 28.5765 10.154 27.559 8.22275C26.4668 6.1504 23.4922 5.37617 19.7407 5.8528C18.3963 2.28625 16.3232 0 13.9971 0C12.9337 0 11.924 0.47895 11.0116 1.33765C11.401 1.45562 11.7503 1.67807 12.0211 1.98061C12.2919 2.28314 12.4738 2.65407 12.5468 3.05272C13.0044 2.85419 13.4979 2.75081 13.9971 2.74892C15.7191 2.74892 17.2893 4.00133 18.471 6.05662C17.0487 6.3302 15.54 6.76807 13.9971 7.3687C12.4549 6.76807 10.9455 6.3302 9.52317 6.05662C9.61503 5.89775 9.70845 5.7443 9.8042 5.5955C9.35523 5.46886 8.95848 5.2031 8.67151 4.83677C8.52151 5.17085 8.38184 5.50943 8.25269 5.85203C4.50041 5.37695 1.52661 6.1504 0.435182 8.22353C-0.58385 10.1548 0.239004 12.8216 2.36893 15.5C0.239004 18.1784 -0.58385 20.8452 0.434403 22.7772C1.52583 24.8496 4.49963 25.6231 8.25191 25.1472C9.59635 28.7138 11.6694 31 13.9963 31C16.3224 31 18.3963 28.7138 19.7415 25.1472C23.4922 25.6231 26.4668 24.8496 27.5582 22.7772C28.5765 20.8452 27.7544 18.1784 25.6245 15.5ZM8.99069 7.09357C10.2129 7.16177 11.541 7.40202 12.9142 7.81432C12.1303 8.15532 11.3394 8.5374 10.5508 8.96132C9.62439 9.4577 8.72336 9.99957 7.85099 10.5849C8.13124 9.30077 8.51815 8.12355 8.99069 7.09357ZM2.83913 9.51312C3.64797 7.97862 5.48052 7.16875 7.83386 7.0804C7.4244 8.43472 7.12553 9.81976 6.94017 11.222C5.53345 12.245 4.3019 13.3346 3.28131 14.4382C2.32923 12.6356 2.11359 10.8918 2.83913 9.5139V9.51312ZM6.81172 18.6682C5.63154 17.6545 4.65455 16.5772 3.92278 15.5C4.65455 14.4227 5.63154 13.3455 6.81094 12.3326C6.70759 13.3852 6.65589 14.4423 6.65602 15.5C6.65602 16.585 6.70896 17.6452 6.81016 18.6682H6.81172ZM2.83991 21.4861C2.11359 20.1082 2.33 18.3652 3.28209 16.5618C4.30268 17.6661 5.53423 18.755 6.94095 19.778C7.12616 21.1802 7.42477 22.5652 7.83386 23.9196C5.4813 23.8312 3.64875 23.0206 2.83991 21.4861ZM7.85177 20.4158C8.17173 20.6305 8.49947 20.8421 8.83499 21.049C8.88949 20.8111 9.01404 20.5995 9.18531 20.4375C8.6466 20.0888 8.13358 19.7253 7.64781 19.3502C7.4399 18.0773 7.33628 16.7896 7.33797 15.5C7.33797 14.1585 7.44696 12.865 7.64703 11.6506C8.66165 10.8687 9.73965 10.1719 10.8699 9.56738C11.8764 9.02597 12.9216 8.55918 13.9971 8.17083C14.6261 8.39713 15.2621 8.65907 15.8989 8.95512C15.9612 8.72573 16.0679 8.51493 16.2103 8.3328C15.832 8.15145 15.4544 7.97785 15.0784 7.81355C16.4524 7.40202 17.7797 7.16178 19.002 7.0928C19.4753 8.12355 19.8622 9.30077 20.1424 10.5849C19.8427 10.3834 19.536 10.185 19.2238 9.99052C19.1452 10.2176 19.0222 10.4245 18.8649 10.5997C19.3834 10.9368 19.8777 11.2886 20.3464 11.6506C20.5465 12.865 20.6554 14.1585 20.6554 15.5C20.6554 16.8415 20.5465 18.135 20.3464 19.3494C19.3317 20.1312 18.2537 20.828 17.1235 21.4326C16.1173 21.9741 15.0723 22.4409 13.9971 22.8292C13.0699 22.4959 12.1287 22.0859 11.1915 21.6008C11.1402 21.8282 11.0249 22.0363 10.859 22.2006C11.5457 22.5595 12.2323 22.8888 12.9158 23.1857C11.5418 23.598 10.2145 23.8382 8.99224 23.9064C8.51815 22.8764 8.13124 21.6992 7.85099 20.415L7.85177 20.4158ZM13.9971 28.2511C12.2751 28.2511 10.7057 26.9987 9.52395 24.9434C10.9455 24.6698 12.4541 24.2319 13.9971 23.6313C15.54 24.2319 17.0487 24.6698 18.471 24.9434C17.2885 26.9987 15.7191 28.2511 13.9971 28.2511ZM19.0027 23.9064C17.7805 23.8382 16.4524 23.598 15.0792 23.1857C15.8829 22.836 16.6716 22.4534 17.4434 22.0387C18.3695 21.5423 19.2703 21.0004 20.1424 20.415C19.8622 21.6992 19.4753 22.8764 19.0035 23.9072L19.0027 23.9064ZM25.1543 21.4861C24.3462 23.0206 22.5129 23.8312 20.1603 23.9196C20.5488 22.654 20.8516 21.2614 21.0533 19.778C22.4592 18.755 23.6915 17.6653 24.7121 16.5618C25.665 18.3652 25.8806 20.1082 25.1543 21.4861ZM21.1825 12.3318C22.3611 13.3463 23.3389 14.4227 24.0699 15.5C23.3381 16.5772 22.3619 17.6545 21.1825 18.6674C21.2829 17.6444 21.3358 16.5858 21.3358 15.5C21.3358 14.415 21.2829 13.3548 21.1825 12.3318ZM24.7113 14.4382C23.6915 13.3346 22.4592 12.245 21.0525 11.222C20.8673 9.81979 20.5687 8.43476 20.1596 7.0804C22.5121 7.16875 24.3454 7.9794 25.1535 9.5139C25.8798 10.8918 25.6642 12.6348 24.7113 14.4382Z" fill="#9E211B"/>
</g>
<defs>
<clipPath id="clip0_3_803">
<rect width="123" height="31" fill="white"/>
</clipPath>
</defs>
</svg>
