<svg width="10" height="10" viewBox="0 0 10 10" fill="none" xmlns="http://www.w3.org/2000/svg">
<path d="M5.625 0.625C5.625 0.279297 5.3457 0 5 0C4.6543 0 4.375 0.279297 4.375 0.625V5.36523L2.94141 3.93164C2.69727 3.6875 2.30078 3.6875 2.05664 3.93164C1.8125 4.17578 1.8125 4.57227 2.05664 4.81641L4.55664 7.31641C4.80078 7.56055 5.19727 7.56055 5.44141 7.31641L7.94141 4.81641C8.18555 4.57227 8.18555 4.17578 7.94141 3.93164C7.69727 3.6875 7.30078 3.6875 7.05664 3.93164L5.625 5.36523V0.625ZM1.25 6.875C0.560547 6.875 0 7.43555 0 8.125V8.75C0 9.43945 0.560547 10 1.25 10H8.75C9.43945 10 10 9.43945 10 8.75V8.125C10 7.43555 9.43945 6.875 8.75 6.875H6.76758L5.88281 7.75977C5.39453 8.24805 4.60352 8.24805 4.11523 7.75977L3.23242 6.875H1.25ZM8.4375 7.96875C8.56182 7.96875 8.68105 8.01814 8.76896 8.10604C8.85686 8.19395 8.90625 8.31318 8.90625 8.4375C8.90625 8.56182 8.85686 8.68105 8.76896 8.76896C8.68105 8.85686 8.56182 8.90625 8.4375 8.90625C8.31318 8.90625 8.19395 8.85686 8.10604 8.76896C8.01814 8.68105 7.96875 8.56182 7.96875 8.4375C7.96875 8.31318 8.01814 8.19395 8.10604 8.10604C8.19395 8.01814 8.31318 7.96875 8.4375 7.96875Z" fill="white"/>
</svg>
